# xmcd
# 
# Track frame offsets:
#     150
#     14571
#     29910
#     42038
#     58298
#     73998
#     89922
#     104976
#     120293
#     133515
#     148587
#     163111
#     174246
#     188246
#     201334
#     216229
#     230606
#     246342
#     259883
#     274245
#     288768
# 
# Disc length: 4066
# 
# Revision: 1
# Processed by: cddbd v1.5.2PL0 Copyright (c) Steve Scherf et al.
# Submitted via: fre:ac v1.0.31
# 
DISCID=580fe015
DTITLE=John Fahey - Your Past Comes Back to Haunt You Disc 2
DYEAR=2011
DGENRE=Folk
TTITLE0=St. Louis Tickle
TTITLE1=Pat Sullivan's Blues
TTITLE2=Blind Blues (aka Martin's Esso Blues)
TTITLE3=Poor Boy Blues
TTITLE4=Long Time Town Blues
TTITLE5=Gulf Port Island Blues
TTITLE6=Blind Thomas Blues, Pt. 1
TTITLE7=Blind Thomas Blues, Pt. 2
TTITLE8=New Newport News Blues #2
TTITLE9=Wanda Russell's Blues
TTITLE10=Going Away to Leave You Blues
TTITLE11=Lay My Burden Down
TTITLE12=Hill High Blues
TTITLE13=John Henry (2)
TTITLE14=Paint Brush Blues
TTITLE15=Blind Thomas Blues, Pt. 3
TTITLE16=Blind Thomas Blues, Pt. 4
TTITLE17=You Gonna Need Somebody on Your Bond
TTITLE18=Jesus Gonna Make Up My Dyin' Bed
TTITLE19=Banty Rooster Blues
TTITLE20=Tom Rushen Blues
EXTD=
EXTT0=
EXTT1=
EXTT2=
EXTT3=
EXTT4=
EXTT5=
EXTT6=
EXTT7=
EXTT8=
EXTT9=
EXTT10=
EXTT11=
EXTT12=
EXTT13=
EXTT14=
EXTT15=
EXTT16=
EXTT17=
EXTT18=
EXTT19=
EXTT20=
PLAYORDER=
